<svg width="96" height="96" xmlns="http://www.w3.org/2000/svg" xmlns:xlink="http://www.w3.org/1999/xlink" overflow="hidden"><defs><clipPath id="clip0"><rect x="372" y="562" width="96" height="96"/></clipPath></defs><g clip-path="url(#clip0)" transform="translate(-372 -562)"><path d="M36.315 91 10 80.1 10 14.999 36.315 4.099 36.315 91Z" transform="matrix(-1 0 0 1 468 562)"/><path d="M63.068 25.866 63.068 38.366 40.315 38.366 40.315 54.366 63.068 54.366 63.068 66.866 87.068 46.366 63.068 25.866Z" transform="matrix(-1 0 0 1 468 562)"/><path d="M51.068 34.366 57.068 34.366 57.068 14.366 40.315 14.366 40.315 20.366 51.068 20.366 51.068 34.366Z" transform="matrix(-1 0 0 1 468 562)"/><path d="M51.068 58.366 51.068 74.366 40.315 74.366 40.315 80.366 57.068 80.366 57.068 58.366 51.068 58.366Z" transform="matrix(-1 0 0 1 468 562)"/></g></svg>