<svg width="96" height="96" viewBox="0 0 96 96" fill="none" xmlns="http://www.w3.org/2000/svg">
<path d="M76.372 58.57H62.966C63.805 40.991 64.608 22.832 55.425 6.49598C54.0995 4.14049 51.1155 3.3055 48.76 4.63098C46.4045 5.95646 45.5695 8.94049 46.895 11.296C50.455 17.622 52.495 24.739 53.275 33.621L51.661 33.639C48.2278 33.6699 45.1535 35.772 43.879 38.96C43.6974 39.2828 43.5525 39.6249 43.447 39.98C42.967 41.657 42.521 43.253 42.092 44.788C39.181 55.197 37.068 62.738 30.522 74.241C28.953 75.281 27.359 76.353 25.736 77.478C23.063 79.118 21.192 80.252 18.417 81.886C16.0867 83.2619 15.313 86.2664 16.6889 88.5967C17.345 89.708 18.413 90.5155 19.661 90.844C20.0658 90.9478 20.4821 91.0002 20.9 91C21.7655 90.9989 22.6151 90.767 23.361 90.328C34.8122 83.7055 45.8341 76.3669 56.361 68.356H71.479V86.105C71.4404 88.8076 73.5999 91.0298 76.3025 91.0685C79.0051 91.1071 81.2274 88.9475 81.266 86.2449C81.2667 86.1983 81.2667 86.1516 81.266 86.105V63.465C81.2632 60.7631 79.0739 58.5733 76.372 58.57ZM79.266 86.105C79.2957 87.703 78.0243 89.0226 76.4263 89.0523C74.8283 89.082 73.5087 87.8106 73.479 86.2126C73.4783 86.1767 73.4783 86.1409 73.479 86.105V66.358H55.687L55.418 66.558C44.8768 74.5993 33.8345 81.9616 22.358 88.6C20.9789 89.4083 19.2058 88.9456 18.3975 87.5665C17.5892 86.1874 18.0519 84.4143 19.431 83.606C22.213 81.969 24.169 80.781 26.807 79.164V79.158C26.823 79.148 26.842 79.145 26.858 79.134C30.248 76.783 33.525 74.65 36.693 72.589C40.559 70.073 44.211 67.697 47.443 65.32C47.456 65.311 47.461 65.296 47.474 65.287C47.534 65.2344 47.5877 65.175 47.634 65.11C47.665 65.0752 47.6937 65.0385 47.72 65C47.7505 64.936 47.7743 64.8689 47.791 64.8C47.8111 64.7481 47.8268 64.6945 47.838 64.64C47.838 64.632 47.844 64.625 47.845 64.616C48.3425 59.7225 48.376 54.7928 47.945 49.893C47.8712 49.3457 47.3676 48.9618 46.8203 49.0357C46.2789 49.1087 45.8964 49.6026 45.961 50.145C46.366 54.7437 46.3456 59.37 45.9 63.965C42.8 66.224 39.306 68.503 35.6 70.911L34.09 71.9C39.348 61.994 41.358 54.84 44.018 45.328C44.446 43.796 44.892 42.204 45.367 40.542C45.4342 40.318 45.5278 40.1028 45.646 39.901L45.713 39.762C46.6726 37.2962 49.0372 35.6636 51.683 35.64L55.437 35.599L55.357 34.535C54.623 24.852 52.487 17.156 48.638 10.316C47.8549 8.92312 48.3491 7.15912 49.742 6.37598C51.1349 5.59284 52.8989 6.08712 53.682 7.47998C62.643 23.419 61.782 41.414 60.952 58.816L60.867 60.573H76.372C77.9713 60.5763 79.266 61.8737 79.266 63.473V86.105Z" fill="black"/>
<path d="M41.913 33.932C46.3313 33.932 49.913 30.3503 49.913 25.932C49.913 21.5137 46.3313 17.932 41.913 17.932C37.4947 17.932 33.913 21.5137 33.913 25.932C33.913 30.3503 37.4947 33.932 41.913 33.932ZM41.913 19.932C45.2267 19.932 47.913 22.6183 47.913 25.932C47.913 29.2457 45.2267 31.932 41.913 31.932C38.5993 31.932 35.913 29.2457 35.913 25.932C35.9152 22.6186 38.5996 19.9324 41.913 19.928V19.932Z" fill="black"/>
</svg>
